<?xml version="1.0" encoding="UTF-8"?>
<svg viewBox="0 0 500 500" xmlns="http://www.w3.org/2000/svg" xmlns:xlink="http://www.w3.org/1999/xlink">
 <path transform="matrix(1 0 0 1.041 -2.5 -52.411)" d="m383.75 228.12a146.88 169.38 0 1 0 -293.75 0 146.88 169.38 0 1 0 293.75 0h-146.88z" fill="#0f0" fill-rule="evenodd"/>
 <path transform="matrix(1 0 0 1.041 0 -15.975)" d="m227.5,361.875v8.125c0,1.25 3.125-3.125-3.125,5s-11.875,6.875-6.875,10 6.25.625 10,0 1.875,2.5 6.25,3.125 5.625.625 8.75-1.25-1.25-3.75 5.625-1.875 8.125,5.625 10.625,3.75-1.875,0-1.875-4.375-2.5-8.75-3.75-9.375-6.25-1.25-6.25-6.875-1.25-6.875-1.25-6.875-15,1.875-18.125.625z" fill="#0f0" fill-rule="evenodd"/>
 <path d="m246.25 365h-18.75l20 6.25-21.25-2.5s-11.25 22.5 1.25 45 16.25 16.25 12.5 37.5-13.75 32.5-11.25 37.5" fill="none" stroke="#000" stroke-width="3.125"/>
 <path transform="translate(-271.25 -57.5)" d="m408.75 121.25s-13.75 31.25-13.75 47.5-1.25 18.75 0 18.75h26.25s0-35 5-46.25 10-20 10-20-27.5-1.25-27.5 0z" fill="#fff" fill-rule="evenodd"/>
 <path transform="translate(-233.75 -57.5)" d="m408.75 121.25s-13.75 31.25-13.75 47.5-1.25 18.75 0 18.75h26.25s0-35 5-46.25 10-20 10-20-27.5-1.25-27.5 0z" fill="#fff" fill-rule="evenodd"/>
 <path transform="matrix(1.004 0 0 .43867 -284.34 85.249)" d="m408.75,118.4c-2.839,0-1.682,21.277-1.682,37.527 .71,16.25.88,28.723 2.13,28.723s25.54-5.699 22.7-1.425c-2.129-21.371-2.839-19.327-2.098-33.426 .74-15.525 1.481-31.399 1.481-31.399s-23.24-1.25-22.531,0z" fill="#fff" fill-rule="evenodd"/>
 <path transform="matrix(1.004 0 0 .43867 -247.46 82.749)" d="m408.75,118.4c-2.839,0-1.682,21.277-1.682,37.527 .71,16.25.88,28.723 2.13,28.723s25.54-5.699 22.7-1.425c-2.129-21.371-2.839-19.327-2.098-33.426 .74-15.525 1.481-31.399 1.481-31.399s-23.24-1.25-22.531,0z" fill="#fff" fill-rule="evenodd"/>
</svg>
